<svg type="CANNABIS_HYBRID" width="20" height="20" viewBox="0 0 50 50" fill="none" xmlns="http://www.w3.org/2000/svg" aria-hidden="true" class="sc-7342567d-0 gFsjMW"><path fill-rule="evenodd" clip-rule="evenodd" d="M36.5392 10.8355C40.6465 14.1856 43.2692 19.2865 43.2692 25C43.2692 30.7139 40.6461 35.8151 36.5385 39.1651C36.5385 39.1651 36.5386 39.1652 36.5387 39.1653C34.5264 40.8064 32.1574 42.0273 29.5658 42.6941C28.1064 43.0695 26.5765 43.2692 25 43.2692C14.9102 43.2692 6.73077 35.0898 6.73077 25C6.73077 14.9102 14.9102 6.73077 25 6.73077C29.3763 6.73077 33.3932 8.26954 36.5392 10.8355ZM33.8143 13.5828C37.2261 16.2206 39.4231 20.3537 39.4231 25C39.4231 29.6464 37.226 33.7796 33.814 36.4175C31.3072 33.2899 29.8077 29.3201 29.8077 25C29.8077 20.6799 31.3072 16.71 33.8143 13.5828ZM30.4488 11.6417L30.1572 12.0358C27.471 15.7429 25.9615 20.2498 25.9615 25L25.9655 25.4201C26.0546 30.1732 27.6547 34.6647 30.4291 38.332L30.4488 38.3583C28.9968 38.9512 27.4266 39.3142 25.7833 39.4022C25.5239 39.4161 25.2628 39.4231 25 39.4231C17.0344 39.4231 10.5769 32.9657 10.5769 25C10.5769 17.0344 17.0344 10.5769 25 10.5769L25.3875 10.582C25.3902 10.5821 25.3928 10.5822 25.3955 10.5822C25.4418 10.5835 25.4881 10.585 25.5344 10.5866C27.2681 10.6498 28.9237 11.0189 30.4488 11.6417Z" fill="#EB4892"></path></svg>