<svg type="CANNABIS_SATIVA" width="20" height="20" viewBox="0 0 50 50" fill="none" xmlns="http://www.w3.org/2000/svg" aria-hidden="true" class="sc-7342567d-0 gFsjMW"><path fill-rule="evenodd" clip-rule="evenodd" d="M25 2.88461C26.0621 2.88461 26.9231 3.7456 26.9231 4.80769V7.69231C26.9231 8.75439 26.0621 9.61538 25 9.61538C23.9379 9.61538 23.077 8.75439 23.077 7.69231V4.80769C23.077 3.7456 23.9379 2.88461 25 2.88461ZM37.5 25C37.5 18.0964 31.9036 12.5 25 12.5C18.0965 12.5 12.5 18.0964 12.5 25C12.5 31.9036 18.0965 37.5 25 37.5C31.9036 37.5 37.5 31.9036 37.5 25ZM16.3462 25C16.3462 20.2206 20.2206 16.3462 25 16.3462C29.7794 16.3462 33.6539 20.2206 33.6539 25C33.6539 29.7794 29.7794 33.6538 25 33.6538C20.2206 33.6538 16.3462 29.7794 16.3462 25ZM26.9231 42.3077C26.9231 41.2456 26.0621 40.3846 25 40.3846C23.9379 40.3846 23.077 41.2456 23.077 42.3077V45.1923C23.077 46.2544 23.9379 47.1154 25 47.1154C26.0621 47.1154 26.9231 46.2544 26.9231 45.1923V42.3077ZM9.36209 9.36206C10.1131 8.61105 11.3307 8.61105 12.0817 9.36206L14.1215 11.4018C14.8725 12.1528 14.8725 13.3704 14.1215 14.1214C13.3705 14.8724 12.1528 14.8724 11.4018 14.1214L9.36209 12.0817C8.61108 11.3307 8.61108 10.1131 9.36209 9.36206ZM38.5982 35.8786C37.8472 35.1276 36.6296 35.1276 35.8786 35.8786C35.1276 36.6296 35.1276 37.8472 35.8786 38.5982L37.9183 40.6379C38.6693 41.3889 39.887 41.3889 40.638 40.6379C41.389 39.8869 41.389 38.6693 40.638 37.9183L38.5982 35.8786ZM9.36209 40.6379C8.61108 39.8869 8.61108 38.6693 9.36209 37.9183L11.4018 35.8786C12.1528 35.1276 13.3705 35.1276 14.1215 35.8786C14.8725 36.6296 14.8725 37.8472 14.1215 38.5982L12.0817 40.6379C11.3307 41.3889 10.1131 41.3889 9.36209 40.6379ZM35.8786 11.4018C35.1276 12.1528 35.1276 13.3704 35.8786 14.1214C36.6296 14.8724 37.8472 14.8724 38.5982 14.1214L40.638 12.0817C41.389 11.3307 41.389 10.1131 40.638 9.36206C39.887 8.61105 38.6693 8.61105 37.9183 9.36206L35.8786 11.4018ZM2.88464 25C2.88464 23.9379 3.74563 23.0769 4.80772 23.0769H7.69234C8.75442 23.0769 9.61541 23.9379 9.61541 25C9.61541 26.0621 8.75442 26.9231 7.69234 26.9231H4.80772C3.74563 26.9231 2.88464 26.0621 2.88464 25ZM42.3077 23.0769C41.2456 23.0769 40.3846 23.9379 40.3846 25C40.3846 26.0621 41.2456 26.9231 42.3077 26.9231H45.1923C46.2544 26.9231 47.1154 26.0621 47.1154 25C47.1154 23.9379 46.2544 23.0769 45.1923 23.0769H42.3077Z" fill="#FFC12E"></path></svg>